<svg xmlns="http://www.w3.org/2000/svg" width="512" height="512" viewBox="0 0 512 512">
  <defs>
    <radialGradient id="glow" cx="50%" cy="50%" r="55%">
      <stop offset="0%" stop-color="#FF8A2E" stop-opacity="0.5"/>
      <stop offset="55%" stop-color="#FF8A2E" stop-opacity="0.14"/>
      <stop offset="82%" stop-color="#FF8A2E" stop-opacity="0.0"/>
    </radialGradient>
    <radialGradient id="flame" cx="50%" cy="38%" r="62%">
      <stop offset="0%" stop-color="#FFE0B0"/>
      <stop offset="45%" stop-color="#FF8A2E"/>
      <stop offset="100%" stop-color="#E0631C"/>
    </radialGradient>
  </defs>

  <!-- dark blue background -->
  <rect width="512" height="512" fill="#1A1A40"/>

  <!-- the warm light the flame throws -->
  <rect width="512" height="512" fill="url(#glow)"/>

  <!-- the orange flame, scaled to fill ~90% of the icon and centered -->
  <g transform="translate(256 256) scale(2.28) translate(-256 -251)">
    <path d="M256 150
             C 300 198, 318 232, 318 274
             C 318 320, 290 352, 256 352
             C 222 352, 194 320, 194 274
             C 194 232, 212 198, 256 150 Z"
          fill="url(#flame)"/>
    <path d="M256 232
             C 274 254, 282 272, 282 292
             C 282 314, 271 330, 256 330
             C 241 330, 230 314, 230 292
             C 230 272, 238 254, 256 232 Z"
          fill="#FFE9C8" fill-opacity="0.9"/>
  </g>
</svg>
